<svg width="40" height="40" viewBox="0 0 40 40" fill="none" xmlns="http://www.w3.org/2000/svg">
<path d="M25 35H15V21C15 20.4477 15.4477 20 16 20H24C24.5523 20 25 20.4477 25 21V35Z" stroke="#4b5563 " stroke-width="2.5" stroke-linecap="round" stroke-linejoin="round"/>
<path d="M34 35.0001H25V30.1667C25 29.6144 25.4477 29.1667 26 29.1667H34C34.5523 29.1667 35 29.6144 35 30.1667V34.0001C35 34.5524 34.5523 35.0001 34 35.0001Z" stroke="#4b5563 " stroke-width="2.5" stroke-linecap="round" stroke-linejoin="round"/>
<path d="M15 34.9999V26.8333C15 26.2809 14.5523 25.8333 14 25.8333H6C5.44772 25.8333 5 26.2809 5 26.8333V33.9999C5 34.5523 5.44772 34.9999 6 34.9999H15Z" stroke="#4b5563 " stroke-width="2.5" stroke-linecap="round" stroke-linejoin="round"/>
<path d="M18.0094 8.52209L19.5245 5.30934C19.719 4.89689 20.281 4.89689 20.4755 5.30934L21.9907 8.52209L25.3792 9.04045C25.814 9.10697 25.9872 9.66629 25.6725 9.98715L23.221 12.4862L23.7995 16.0167C23.8739 16.47 23.4192 16.8158 23.0302 16.6017L20 14.9339L16.9699 16.6017C16.5809 16.8158 16.1262 16.47 16.2005 16.0167L16.779 12.4862L14.3275 9.98715C14.0128 9.66629 14.1861 9.10697 14.6208 9.04045L18.0094 8.52209Z" stroke="#4b5563 " stroke-width="2.5" stroke-linecap="round" stroke-linejoin="round"/>
</svg>
