<svg width="40" height="40" viewBox="0 0 40 40" fill="none" xmlns="http://www.w3.org/2000/svg">
<path d="M28.3333 33.3332C28.3333 30.5717 24.6023 28.3333 20 28.3333C15.3976 28.3333 11.6667 30.5717 11.6667 33.3332M35 28.3339C35 26.2836 32.9432 24.5214 30 23.7499M5 28.3339C5 26.2836 7.05683 24.5214 10 23.7499M30 17.0601C31.0228 16.1446 31.6667 14.8141 31.6667 13.3333C31.6667 10.5718 29.4282 8.33325 26.6667 8.33325C25.386 8.33325 24.218 8.81467 23.3333 9.6064M10 17.0601C8.97708 16.1446 8.33333 14.8141 8.33333 13.3333C8.33333 10.5718 10.5719 8.33325 13.3333 8.33325C14.6139 8.33325 15.7821 8.81467 16.6667 9.6064M20 23.3333C17.2385 23.3333 15 21.0948 15 18.3333C15 15.5718 17.2385 13.3333 20 13.3333C22.7615 13.3333 25 15.5718 25 18.3333C25 21.0948 22.7615 23.3333 20 23.3333Z" stroke="#4b5563 " stroke-width="3" stroke-linecap="round" stroke-linejoin="round"/>
</svg>
