<svg width="116" height="116" viewBox="0 0 116 116" fill="none" xmlns="http://www.w3.org/2000/svg">
<g filter="url(#filter0_d_212_5)">
<circle cx="58" cy="58" r="54" fill="#DBE2FF"/>
</g>
<path d="M82.193 81.3235C82.193 84.1365 71.5215 86.417 58.359 86.417C45.196 86.417 34.5255 84.1365 34.5255 81.3235C34.5255 78.5105 45.3625 76.417 58.5255 76.417C71.688 76.417 82.193 78.5105 82.193 81.3235Z" fill="#B8CBCD"/>
<path d="M42.403 62.982L33.963 75.542C32.926 77.222 33.8455 79.88 35.5255 80.917C37.2055 81.954 40.426 82.441 41.463 80.7605L48.95 67.0565L54.0675 67.6285C60.128 67.308 66.3465 63.6185 70.2 57.376C75.9785 48.015 74.252 36.4695 66.344 31.5875C58.436 26.7055 47.3405 30.3365 41.562 39.6975C38.1705 45.1915 37.3675 51.437 38.8795 56.6475L38.8755 56.645L38.89 56.6855L42.403 62.982Z" fill="#758FFF"/>
<path d="M38.94 83.3615C37.515 83.3615 35.905 82.9135 34.738 82.1935C32.5135 80.8205 31.133 77.2715 32.687 74.7545C32.6972 74.7379 32.7077 74.7216 32.7185 74.7055L40.645 62.9095L37.58 57.416C37.5184 57.3052 37.471 57.1871 37.439 57.0645C35.7405 51.2095 36.778 44.5915 40.286 38.909C44.4715 32.1285 51.471 27.9165 58.5525 27.9165C61.6285 27.9165 64.5955 28.7445 67.1325 30.3105C75.732 35.619 77.681 48.1135 71.477 58.1635C67.5225 64.5695 60.882 68.77 54.147 69.126C54.0645 69.131 53.9825 69.128 53.901 69.119L49.7835 68.659L42.7795 81.48C42.7668 81.5032 42.7535 81.5261 42.7395 81.5485C42.0175 82.718 40.6685 83.3615 38.94 83.3615ZM35.2275 76.3495C34.9855 76.7595 34.9595 77.384 35.158 78.0275C35.37 78.7135 35.8125 79.331 36.313 79.6405C37.0115 80.0715 38.067 80.3615 38.9395 80.3615H38.94C39.543 80.3615 40.011 80.221 40.173 79.9935L47.6335 66.337C47.7761 66.0757 47.9934 65.8627 48.2575 65.7253C48.5216 65.5879 48.8206 65.5323 49.1165 65.5655L54.1085 66.1235C59.835 65.774 65.5025 62.13 68.9235 56.588C74.258 47.946 72.7475 37.3035 65.556 32.8635C63.463 31.572 61.107 30.9165 58.552 30.9165C52.503 30.9165 46.4815 34.5825 42.8385 40.4845C39.7995 45.4075 38.872 51.0935 40.285 56.1065L43.713 62.2505C43.988 62.7435 43.9625 63.349 43.648 63.818L35.2275 76.3495Z" fill="#222B3D"/>
<path d="M42.403 62.982L33.963 75.542C32.926 77.222 33.8455 79.88 35.5255 80.917C37.2055 81.954 40.426 82.441 41.463 80.7605L48.95 67.0565L54.0675 67.6285C60.128 67.308 66.3465 63.6185 70.2 57.376C75.9785 48.015 74.252 36.4695 66.344 31.5875C58.436 26.7055 47.3405 30.3365 41.562 39.6975C38.1705 45.1915 37.3675 51.437 38.8795 56.6475L38.8755 56.645L38.89 56.6855" fill="#758FFF"/>
<path d="M38.9425 83.3615C38.8565 83.3615 38.7695 83.36 38.681 83.357C37.312 83.3075 35.8375 82.8725 34.7375 82.1935C32.513 80.8205 31.1325 77.2715 32.6865 74.7545C32.6967 74.7379 32.7072 74.7216 32.718 74.7055L41.158 62.1455C41.3831 61.8229 41.7259 61.6016 42.1126 61.5293C42.4993 61.457 42.8989 61.5394 43.2254 61.7588C43.5519 61.9781 43.7792 62.317 43.8583 62.7023C43.9375 63.0876 43.8621 63.4886 43.6485 63.819L35.228 76.35C34.9865 76.76 34.96 77.385 35.159 78.028C35.371 78.714 35.8135 79.3315 36.314 79.641C36.9715 80.047 37.9435 80.3285 38.79 80.3595C39.463 80.3825 39.998 80.2405 40.1735 79.9935L47.634 66.3375C47.7767 66.0761 47.9939 65.8632 48.258 65.7258C48.5221 65.5884 48.8212 65.5327 49.117 65.566L54.109 66.124C59.8355 65.7745 65.503 62.1305 68.924 56.5885C74.2585 47.9465 72.748 37.304 65.5565 32.864C62.1135 30.7385 57.8755 30.334 53.621 31.727C49.277 33.1485 45.4475 36.259 42.8385 40.485C39.775 45.448 38.857 51.1865 40.32 56.2295C40.3996 56.5031 40.3995 56.7939 40.3195 57.0675C40.2565 57.2981 40.139 57.5102 39.9769 57.686C39.8148 57.8617 39.6128 57.996 39.388 58.0775C38.6085 58.3575 37.7565 57.97 37.478 57.1905C37.4631 57.1492 37.4501 57.1074 37.439 57.065C35.7405 51.2095 36.778 44.5925 40.286 38.9095C43.2665 34.081 47.6715 30.5175 52.6885 28.876C57.7955 27.2035 62.925 27.714 67.132 30.311C75.7315 35.6195 77.6805 48.114 71.4765 58.164C67.5225 64.5695 60.882 68.77 54.147 69.126C54.0645 69.131 53.9825 69.128 53.901 69.119L49.7835 68.659L42.7795 81.48C42.7669 81.5032 42.7535 81.526 42.7395 81.5485C42.0145 82.723 40.6725 83.3615 38.9425 83.3615Z" fill="#222B3D"/>
<path d="M39.3879 55.588C38.9901 55.588 38.6086 55.43 38.3273 55.1486C38.046 54.8673 37.8879 54.4858 37.8879 54.088C37.8879 42.255 43.2194 34.3885 53.3059 31.3385C60.5344 29.152 65.8979 30.03 71.2399 34.2735C71.5491 34.5217 71.7474 34.8822 71.7915 35.2762C71.8356 35.6703 71.722 36.0657 71.4754 36.3761C71.2287 36.6866 70.8693 36.8868 70.4755 36.9329C70.0817 36.9791 69.6857 36.8675 69.3739 36.6225C64.8354 33.017 60.4319 32.317 54.1744 34.21C43.1934 37.5305 40.8884 46.8525 40.8884 54.088C40.8883 54.4859 40.7302 54.8674 40.4488 55.1487C40.1674 55.43 39.7858 55.588 39.3879 55.588Z" fill="white"/>
<path d="M38.94 83.3615C37.515 83.3615 35.905 82.9135 34.738 82.1935C32.5135 80.8205 31.133 77.2715 32.687 74.7545C32.6972 74.7379 32.7077 74.7216 32.7185 74.7055L40.562 63.0335C38.405 60.031 37.4895 57.2335 37.448 57.105C37.4331 57.0592 37.4206 57.0126 37.4105 56.9655C35.752 51.1345 36.7975 44.56 40.286 38.9095C44.4715 32.129 51.471 27.917 58.5525 27.917C61.6285 27.917 64.5955 28.745 67.1325 30.311C75.732 35.6195 77.681 48.114 71.477 58.164C67.5225 64.5695 60.882 68.77 54.147 69.126C54.0645 69.131 53.9825 69.128 53.901 69.119L49.7835 68.659L42.7795 81.48C42.7668 81.5032 42.7535 81.5261 42.7395 81.5485C42.0175 82.718 40.6685 83.3615 38.94 83.3615ZM35.2275 76.3495C34.9855 76.7595 34.9595 77.384 35.158 78.0275C35.37 78.7135 35.8125 79.331 36.313 79.6405C37.0115 80.0715 38.067 80.3615 38.9395 80.3615H38.94C39.543 80.3615 40.011 80.221 40.173 79.9935L47.6335 66.337C47.7761 66.0757 47.9934 65.8627 48.2575 65.7253C48.5216 65.5879 48.8206 65.5323 49.1165 65.5655L54.1085 66.1235C59.835 65.774 65.5025 62.13 68.9235 56.588C74.258 47.946 72.7475 37.3035 65.556 32.8635C63.463 31.572 61.107 30.9165 58.552 30.9165C52.503 30.9165 46.4815 34.5825 42.8385 40.4845C39.775 45.4475 38.857 51.186 40.32 56.229L40.327 56.254C40.489 56.718 41.489 59.425 43.5765 62.0475C43.7749 62.2969 43.8887 62.6029 43.9016 62.9213C43.9144 63.2397 43.8256 63.5539 43.648 63.8185L35.2275 76.3495Z" fill="#222B3D"/>
<path d="M59.358 67.289C59.179 67.289 58.9975 67.2405 58.8335 67.1395L38.3175 54.4745C38.0918 54.3352 37.9308 54.1119 37.8698 53.8539C37.8087 53.5958 37.8527 53.3241 37.992 53.0985C38.1313 52.8729 38.3545 52.7118 38.6126 52.6508C38.8706 52.5897 39.1423 52.6337 39.368 52.773L59.884 65.438C60.0692 65.5523 60.2121 65.724 60.291 65.9269C60.3698 66.1298 60.3802 66.3529 60.3207 66.5623C60.2612 66.7717 60.135 66.956 59.9612 67.0872C59.7875 67.2183 59.5757 67.2892 59.358 67.289Z" fill="#222B3D"/>
<path d="M48.025 65.416L34.3485 73.5601C32.7365 74.7006 33.24 78.1825 34.3805 79.794C35.521 81.406 38.6375 83.0385 40.249 81.8975L52.4565 71.7261L56.943 74.2541C62.646 76.3296 69.812 75.3666 75.8005 71.1285C84.78 64.7736 87.707 53.4725 82.3385 45.8865C76.97 38.3005 65.3385 37.302 56.359 43.657C51.0885 47.387 47.907 52.821 47.26 58.208L47.2575 58.204L47.255 58.2465" fill="#DBE2FF"/>
<path d="M38.922 83.7804C38.1895 83.7804 37.3925 83.6084 36.562 83.2629C35.195 82.6944 33.8895 81.6974 33.156 80.6604C32.4225 79.6239 31.916 78.0614 31.8345 76.5829C31.7295 74.6704 32.314 73.1619 33.482 72.3354C33.514 72.3129 33.547 72.2914 33.581 72.2709L47.2575 64.1269C47.4268 64.0259 47.6142 63.9593 47.8092 63.9308C48.0043 63.9024 48.203 63.9127 48.394 63.9611C48.585 64.0095 48.7646 64.0952 48.9225 64.2131C49.0804 64.3311 49.2134 64.479 49.314 64.6484C49.4149 64.8177 49.4813 65.0051 49.5097 65.2C49.538 65.395 49.5277 65.5936 49.4793 65.7845C49.4308 65.9754 49.3453 66.1549 49.2274 66.3128C49.1096 66.4706 48.9618 66.6037 48.7925 66.7044L35.1865 74.8069C34.9705 74.9934 34.782 75.5509 34.83 76.4179C34.881 77.3354 35.192 78.3444 35.605 78.9279C36.018 79.5114 36.8655 80.1404 37.714 80.4934C38.516 80.8274 39.1045 80.8354 39.352 80.6934L51.4965 70.5749C51.7303 70.3802 52.0177 70.2611 52.3207 70.2335C52.6237 70.2059 52.928 70.2711 53.1931 70.4204L57.5695 72.8864C62.975 74.8049 69.6175 73.6679 74.934 69.9054C78.988 67.0364 81.8521 63.0194 82.9981 58.5944C84.1206 54.2614 83.4515 50.0564 81.114 46.7539C78.777 43.4514 75.0336 41.4219 70.5741 41.0394C66.0216 40.6474 61.279 42.0134 57.225 44.8824C52.4646 48.2514 49.375 53.1739 48.7491 58.3874C48.7146 58.6747 48.5979 58.9459 48.413 59.1684C48.2651 59.3533 48.0751 59.5002 47.8589 59.5968C47.6427 59.6934 47.4065 59.737 47.17 59.7239C46.3431 59.6764 45.71 58.9884 45.7575 58.1614C45.76 58.1169 45.7645 58.0724 45.771 58.0284C46.4985 51.9754 50.0415 46.2914 55.4925 42.4339C60.1241 39.1559 65.57 37.5984 70.8311 38.0509C76.1856 38.5104 80.7071 40.9859 83.563 45.0214C86.419 49.0569 87.25 54.1444 85.9025 59.3469C84.579 64.4574 81.299 69.0764 76.667 72.3544C70.5225 76.7034 62.7686 77.9729 56.43 75.6649C56.3529 75.6368 56.2782 75.6026 56.2065 75.5624L52.6215 73.5424L41.209 83.0514C41.1788 83.0769 41.1475 83.1009 41.115 83.1234C40.496 83.5609 39.75 83.7804 38.922 83.7804Z" fill="#222B3D"/>
<path d="M48.025 65.416L34.3485 73.5601C32.7365 74.7006 33.24 78.1825 34.3805 79.794C35.521 81.406 38.6375 83.0385 40.249 81.8975L52.4565 71.7261L56.943 74.2541C62.646 76.3296 69.812 75.3666 75.8005 71.1285C84.78 64.7736 87.707 53.4725 82.3385 45.8865C76.97 38.3005 65.3385 37.302 56.359 43.657C51.0885 47.387 47.907 52.821 47.26 58.208L47.2575 58.204L47.255 58.2465L48.025 65.416Z" fill="#DBE2FF"/>
<path d="M48.885 57.1395C48.6439 57.1395 48.4063 57.0815 48.1924 56.9702C47.9785 56.8589 47.7946 56.6977 47.6563 56.5002C47.5179 56.3027 47.4292 56.0748 47.3977 55.8358C47.3661 55.5967 47.3927 55.3536 47.475 55.127C49.8105 48.6945 55.551 43.624 62.83 41.5635C70.1855 39.4815 77.8045 40.798 83.2075 45.0855C83.3618 45.208 83.4905 45.3596 83.5862 45.5318C83.6819 45.704 83.7427 45.8933 83.7653 46.089C83.7878 46.2847 83.7715 46.4829 83.7174 46.6724C83.6634 46.8618 83.5725 47.0387 83.45 47.193C83.3276 47.3473 83.1759 47.476 83.0037 47.5717C82.8316 47.6674 82.6422 47.7282 82.4465 47.7507C82.2508 47.7732 82.0526 47.757 81.8632 47.7029C81.6738 47.6488 81.4968 47.558 81.3425 47.4355C76.693 43.746 70.0785 42.6295 63.6465 44.45C57.2925 46.2485 52.3015 50.6225 50.294 56.151C50.1892 56.4405 49.9976 56.6908 49.7455 56.8676C49.4934 57.0445 49.193 57.1394 48.885 57.1395Z" fill="white"/>
<path d="M38.9215 83.779C36.6936 83.779 34.2405 82.1935 33.156 80.6605C32.4225 79.624 31.916 78.0615 31.8345 76.583C31.7295 74.6705 32.314 73.162 33.482 72.3355C33.514 72.313 33.547 72.2915 33.581 72.271L46.341 64.6725C45.5095 60.372 45.738 58.256 45.769 58.013C45.7725 57.983 45.7776 57.9535 45.7831 57.9245C46.5381 51.91 50.0721 46.268 55.4921 42.4325C59.5546 39.5575 64.3725 37.974 69.0585 37.974C75.107 37.974 80.3936 40.542 83.5625 45.02C86.4185 49.0555 87.2495 54.143 85.9021 59.3455C84.5785 64.456 81.2985 69.075 76.6665 72.353C72.607 75.226 67.7921 76.8085 63.1081 76.8085C60.7636 76.8085 58.5166 76.423 56.43 75.6635C56.3529 75.6354 56.2782 75.6011 56.2065 75.561L52.6215 73.541L41.209 83.05C41.1788 83.0754 41.1475 83.0994 41.115 83.122C40.4995 83.558 39.7615 83.779 38.9215 83.779ZM35.1865 74.807C34.9705 74.9935 34.782 75.551 34.83 76.418C34.881 77.3355 35.192 78.3445 35.605 78.928C36.2105 79.784 37.7915 80.779 38.9215 80.7795C39.0525 80.7795 39.2285 80.764 39.3515 80.6935L51.496 70.5745C51.7298 70.3797 52.0172 70.2606 52.3202 70.2331C52.6232 70.2055 52.9275 70.2707 53.1925 70.42L57.569 72.886C59.2941 73.4985 61.1571 73.809 63.1081 73.809C67.1766 73.809 71.3765 72.4225 74.9335 69.905C78.9875 67.036 81.8516 63.019 82.9976 58.594C84.1201 54.261 83.451 50.056 81.1135 46.7535C78.5145 43.081 74.1205 40.9745 69.058 40.9745C64.9875 40.9745 60.785 42.362 57.2246 44.882C52.4641 48.251 49.3745 53.1735 48.7486 58.387C48.7461 58.4082 48.7431 58.4294 48.7395 58.4505C48.7115 58.816 48.6 60.9895 49.4905 65.0985C49.557 65.4057 49.5254 65.726 49.4001 66.0143C49.2747 66.3025 49.0621 66.5441 48.792 66.705L35.1865 74.807Z" fill="#222B3D"/>
<path d="M62.307 76.048C62.1469 76.0483 61.9891 76.01 61.8469 75.9365C61.7047 75.863 61.5823 75.7563 61.49 75.6255L47.623 56.0315C47.5471 55.9243 47.4931 55.8032 47.464 55.6752C47.435 55.5471 47.4314 55.4146 47.4535 55.2851C47.4757 55.1557 47.5231 55.0319 47.5931 54.9207C47.6631 54.8096 47.7543 54.7134 47.8615 54.6375C48.078 54.4843 48.3465 54.4233 48.6079 54.4681C48.7373 54.4902 48.8611 54.5376 48.9723 54.6076C49.0834 54.6776 49.1796 54.7688 49.2555 54.876L63.122 74.47C63.2279 74.6196 63.2907 74.7954 63.3035 74.9783C63.3163 75.1612 63.2786 75.344 63.1944 75.5069C63.1103 75.6698 62.9831 75.8064 62.8265 75.9018C62.67 75.9973 62.4903 76.0478 62.307 76.048Z" fill="#222B3D"/>
<path d="M61.5255 53.667C61.5255 54.9268 62.026 56.135 62.9168 57.0257C63.8076 57.9165 65.0157 58.417 66.2755 58.417C67.5353 58.417 68.7435 57.9165 69.6343 57.0257C70.5251 56.135 71.0255 54.9268 71.0255 53.667C71.0255 52.4072 70.5251 51.199 69.6343 50.3082C68.7435 49.4174 67.5353 48.917 66.2755 48.917C65.0157 48.917 63.8076 49.4174 62.9168 50.3082C62.026 51.199 61.5255 52.4072 61.5255 53.667Z" fill="white"/>
<path d="M66.2755 59.417C63.105 59.417 60.5255 56.8375 60.5255 53.667C60.5255 50.4965 63.105 47.917 66.2755 47.917C69.446 47.917 72.0255 50.4965 72.0255 53.667C72.0255 56.8375 69.446 59.417 66.2755 59.417ZM66.2755 49.917C64.2075 49.917 62.5255 51.599 62.5255 53.667C62.5255 55.735 64.2075 57.417 66.2755 57.417C68.3435 57.417 70.0255 55.735 70.0255 53.667C70.0255 51.599 68.3435 49.917 66.2755 49.917Z" fill="#222B3D"/>
<defs>
<filter id="filter0_d_212_5" x="0" y="0" width="116" height="116" filterUnits="userSpaceOnUse" color-interpolation-filters="sRGB">
<feFlood flood-opacity="0" result="BackgroundImageFix"/>
<feColorMatrix in="SourceAlpha" type="matrix" values="0 0 0 0 0 0 0 0 0 0 0 0 0 0 0 0 0 0 127 0" result="hardAlpha"/>
<feOffset/>
<feGaussianBlur stdDeviation="2"/>
<feComposite in2="hardAlpha" operator="out"/>
<feColorMatrix type="matrix" values="0 0 0 0 0 0 0 0 0 0 0 0 0 0 0 0 0 0 0.05 0"/>
<feBlend mode="normal" in2="BackgroundImageFix" result="effect1_dropShadow_212_5"/>
<feBlend mode="normal" in="SourceGraphic" in2="effect1_dropShadow_212_5" result="shape"/>
</filter>
</defs>
</svg>
