<svg width="116" height="116" viewBox="0 0 116 116" fill="none" xmlns="http://www.w3.org/2000/svg">
<g filter="url(#filter0_d_212_6)">
<circle cx="58" cy="58" r="54" fill="#DBE2FF"/>
</g>
<path d="M80.7755 81.8235C80.7755 84.6365 70.104 86.917 56.9415 86.917C43.7785 86.917 33.108 84.6365 33.108 81.8235C33.108 79.0105 43.6125 76.917 56.7755 76.917C69.938 76.917 80.7755 79.0105 80.7755 81.8235Z" fill="#B8CBCD"/>
<path d="M64.5515 65.1605C60.0915 65.1605 56.019 63.544 53.0835 60.6085C49.742 57.2675 48.1525 52.5975 48.607 47.459C49.0525 42.4205 51.422 37.5215 55.2795 33.6645C59.5675 29.376 65.2085 26.917 70.7565 26.917C75.2165 26.917 79.289 28.5335 82.224 31.4685C85.5655 34.8095 87.155 39.4795 86.7005 44.618C86.255 49.6565 83.885 54.5555 80.028 58.413C75.7405 62.701 70.099 65.1605 64.5515 65.1605ZM70.7565 29.917C65.9985 29.917 61.1305 32.056 57.4005 35.786C54.0405 39.146 51.979 43.3855 51.5955 47.7235C51.2205 51.9625 52.5025 55.785 55.205 58.4875C57.5735 60.856 60.8925 62.1605 64.5515 62.1605C69.3095 62.1605 74.1775 60.0215 77.907 56.292C81.267 52.932 83.3285 48.692 83.712 44.354C84.087 40.1155 82.8055 36.2925 80.1025 33.59C77.7345 31.221 74.415 29.917 70.7565 29.917Z" fill="#222B3D"/>
<path d="M33.623 84.312C32.362 85.5725 30.4875 85.743 29.437 84.6925C28.386 83.6415 28.2835 81.8735 29.5445 80.6125L39.0905 71.0665C40.3515 69.8055 42.4665 69.5615 43.5175 70.612C44.5685 71.6635 44.398 73.537 43.137 74.7985L33.623 84.312Z" fill="#758FFF"/>
<path d="M31.183 86.8815C30.1005 86.8815 29.104 86.481 28.3765 85.753C26.668 84.045 26.715 81.321 28.4835 79.552L38.03 70.006C39.0025 69.0335 40.3925 68.453 41.7475 68.453C42.864 68.453 43.8695 68.843 44.578 69.5515C46.2125 71.186 46.0415 74.0155 44.1975 75.859L34.684 85.3725C33.725 86.3315 32.449 86.8815 31.183 86.8815ZM41.7475 71.4525C41.179 71.4525 40.567 71.711 40.151 72.127L30.605 81.673C29.927 82.3515 30.038 83.172 30.4975 83.632C30.704 83.838 30.984 83.8815 31.183 83.8815C31.652 83.8815 32.168 83.646 32.5625 83.2515L42.076 73.738C42.727 73.0865 42.905 72.1215 42.4565 71.673C42.317 71.533 42.0585 71.4525 41.7475 71.4525Z" fill="#222B3D"/>
<path d="M39.8755 71.895C39.5786 71.8954 39.2884 71.8077 39.0414 71.643C38.7945 71.4782 38.6021 71.2439 38.4885 70.9696C38.3749 70.6954 38.3453 70.3936 38.4034 70.1025C38.4615 69.8114 38.6048 69.5441 38.815 69.3345C47.9175 60.232 49.7835 55.142 49.4335 54.318C49.112 53.562 49.452 52.672 50.2045 52.342C50.9565 52.012 51.828 52.333 52.1665 53.0815C54.175 57.5205 44.9815 67.41 40.936 71.4555C40.7969 71.5951 40.6316 71.7058 40.4496 71.7812C40.2676 71.8566 40.0725 71.8953 39.8755 71.895ZM43.708 75.7275C43.4114 75.7273 43.1215 75.6392 42.8749 75.4743C42.6283 75.3094 42.4362 75.0751 42.3227 74.8011C42.2092 74.527 42.1795 74.2255 42.2373 73.9346C42.2951 73.6436 42.4378 73.3764 42.6475 73.1665C47.7125 68.1015 56.8195 59.8795 60.916 61.731C61.0955 61.8122 61.2572 61.9279 61.392 62.0716C61.5267 62.2153 61.6319 62.3842 61.7014 62.5685C61.7709 62.7528 61.8034 62.949 61.7971 63.1459C61.7907 63.3428 61.7457 63.5365 61.6645 63.716C61.5835 63.8956 61.4678 64.0575 61.3241 64.1924C61.1805 64.3272 61.0116 64.4325 60.8272 64.502C60.6429 64.5715 60.4466 64.604 60.2496 64.5975C60.0527 64.5911 59.8589 64.5459 59.6795 64.4645C58.724 64.085 53.818 66.2385 44.7685 75.288C44.6294 75.4275 44.4641 75.5381 44.2821 75.6136C44.1001 75.689 43.905 75.7277 43.708 75.7275Z" fill="#222B3D"/>
<path d="M60.7755 76.167C60.7755 78.2224 61.592 80.1937 63.0454 81.6471C64.4988 83.1005 66.4701 83.917 68.5255 83.917C70.5809 83.917 72.5522 83.1005 74.0056 81.6471C75.459 80.1937 76.2755 78.2224 76.2755 76.167C76.2755 74.1116 75.459 72.1403 74.0056 70.6869C72.5522 69.2335 70.5809 68.417 68.5255 68.417C66.4701 68.417 64.4988 69.2335 63.0454 70.6869C61.592 72.1403 60.7755 74.1116 60.7755 76.167Z" fill="#758FFF"/>
<path d="M68.5255 85.417C67.3103 85.4204 66.1065 85.1826 64.9838 84.7176C63.8611 84.2525 62.8418 83.5693 61.985 82.7075C60.2375 80.9605 59.2755 78.638 59.2755 76.167C59.2755 73.696 60.2375 71.3735 61.985 69.6265C62.8419 68.7649 63.8612 68.0818 64.9839 67.6167C66.1066 67.1516 67.3103 66.9138 68.5255 66.917C70.996 66.917 73.319 67.879 75.066 69.6265C76.8135 71.3735 77.7755 73.696 77.7755 76.167C77.7755 78.638 76.8135 80.9605 75.066 82.708C74.2091 83.5696 73.1898 84.2526 72.0671 84.7176C70.9444 85.1826 69.7407 85.4203 68.5255 85.417ZM68.5255 69.917C66.856 69.917 65.2865 70.567 64.106 71.7475C62.9255 72.928 62.2755 74.4975 62.2755 76.167C62.2755 77.8365 62.9255 79.406 64.106 80.586C64.685 81.1683 65.3738 81.6299 66.1324 81.9442C66.891 82.2585 67.7044 82.4192 68.5255 82.417C70.195 82.417 71.764 81.767 72.945 80.5865C74.1255 79.406 74.7755 77.8365 74.7755 76.167C74.7755 74.4975 74.1255 72.928 72.945 71.748C72.366 71.1657 71.6773 70.7041 70.9187 70.3898C70.1601 70.0755 69.3467 69.9148 68.5255 69.917Z" fill="#222B3D"/>
<path d="M62.8606 77.148C62.0671 77.148 61.2676 77.014 60.4986 76.7375C60.3109 76.67 60.1477 76.548 60.0299 76.3871C59.9121 76.2262 59.8451 76.0337 59.8376 75.8345L59.8341 75.7385C59.8315 75.6071 59.8549 75.4766 59.9029 75.3543C59.9508 75.232 60.0224 75.1204 60.1135 75.0257C60.2046 74.9311 60.3134 74.8554 60.4338 74.8028C60.5542 74.7503 60.6837 74.7219 60.8151 74.7195C61.0641 74.7055 61.2981 74.803 61.4761 74.9525C63.2146 75.4555 65.1186 74.977 66.4041 73.692C67.7571 72.339 68.2141 70.368 67.5971 68.5485C67.5522 68.4235 67.5326 68.2908 67.5396 68.1582C67.5465 68.0256 67.5798 67.8957 67.6375 67.7761C67.6952 67.6565 67.7761 67.5496 67.8755 67.4616C67.975 67.3736 68.0909 67.3063 68.2167 67.2636C68.3424 67.2209 68.4754 67.2037 68.6078 67.2129C68.7403 67.2222 68.8696 67.2577 68.9882 67.3175C69.1068 67.3772 69.2123 67.46 69.2985 67.5609C69.3848 67.6619 69.45 67.779 69.4906 67.9055C70.3546 70.452 69.7136 73.211 67.8181 75.106C66.4906 76.4345 64.6901 77.148 62.8606 77.148ZM69.1046 84.7575C68.8851 84.7573 68.6717 84.685 68.4974 84.5517C68.3231 84.4183 68.1976 84.2313 68.1401 84.0195C67.4816 81.599 68.1711 78.9965 69.9396 77.228C71.7896 75.378 74.4925 74.7175 76.9956 75.505C77.1208 75.5444 77.2371 75.6081 77.3378 75.6925C77.4384 75.7769 77.5215 75.8802 77.5822 75.9967C77.6429 76.1132 77.6801 76.2405 77.6916 76.3713C77.7031 76.5021 77.6887 76.6339 77.6493 76.7592C77.6099 76.8845 77.5462 77.0008 77.4618 77.1014C77.3774 77.2021 77.274 77.2852 77.1576 77.3459C77.0411 77.4066 76.9138 77.4437 76.783 77.4552C76.6522 77.4668 76.5203 77.4524 76.3951 77.413C75.5227 77.1358 74.591 77.104 73.7018 77.3209C72.8126 77.5378 72.0002 77.9952 71.3536 78.643C70.7321 79.2677 70.2862 80.0452 70.0609 80.897C69.8356 81.7489 69.8387 82.6452 70.0701 83.4955C70.1103 83.6438 70.1159 83.7994 70.0862 83.9502C70.0566 84.1011 69.9926 84.243 69.8992 84.3651C69.8058 84.4872 69.6855 84.5861 69.5477 84.6541C69.4099 84.7222 69.2583 84.7575 69.1046 84.7575ZM54.6471 60.0455C54.4493 60.0454 54.256 59.9868 54.0916 59.8769C53.9272 59.767 53.799 59.6108 53.7234 59.4281C53.6477 59.2454 53.6279 59.0444 53.6665 58.8504C53.705 58.6565 53.8002 58.4783 53.9401 58.3385L80.1031 32.1755C80.1953 32.08 80.3056 32.0038 80.4276 31.9514C80.5497 31.899 80.6809 31.8714 80.8137 31.8702C80.9464 31.8691 81.0781 31.8944 81.201 31.9447C81.3239 31.9949 81.4356 32.0692 81.5294 32.1631C81.6233 32.257 81.6976 32.3686 81.7479 32.4915C81.7982 32.6144 81.8235 32.7461 81.8223 32.8789C81.8212 33.0117 81.7936 33.1429 81.7412 33.2649C81.6887 33.3869 81.6126 33.4972 81.5171 33.5895L55.3541 59.7525C55.1591 59.948 54.9026 60.0455 54.6471 60.0455ZM51.4651 55.4495C51.2673 55.4494 51.074 55.3908 50.9096 55.2809C50.7452 55.171 50.617 55.0148 50.5414 54.8321C50.4657 54.6494 50.4459 54.4484 50.4845 54.2544C50.523 54.0605 50.6182 53.8823 50.7581 53.7425L74.7996 29.7005C74.8918 29.605 75.0021 29.5288 75.1241 29.4764C75.2462 29.424 75.3774 29.3964 75.5101 29.3952C75.6429 29.3941 75.7746 29.4194 75.8975 29.4697C76.0204 29.5199 76.1321 29.5942 76.2259 29.6881C76.3198 29.782 76.3941 29.8936 76.4444 30.0165C76.4947 30.1394 76.52 30.2711 76.5188 30.4039C76.5176 30.5367 76.4901 30.6679 76.4377 30.7899C76.3852 30.9119 76.3091 31.0222 76.2136 31.1145L52.1721 55.1565C52.0794 55.2496 51.9692 55.3234 51.8478 55.3737C51.7265 55.424 51.5964 55.4497 51.4651 55.4495ZM59.2431 63.2275C59.0453 63.2274 58.852 63.1688 58.6876 63.0589C58.5232 62.949 58.395 62.7928 58.3194 62.6101C58.2437 62.4274 58.2239 62.2264 58.2625 62.0324C58.301 61.8385 58.3962 61.6603 58.5361 61.5205L82.5776 37.479C82.6698 37.3835 82.7801 37.3073 82.9021 37.2549C83.0242 37.2025 83.1554 37.1749 83.2882 37.1737C83.4209 37.1726 83.5526 37.1979 83.6755 37.2482C83.7984 37.2984 83.9101 37.3727 84.0039 37.4666C84.0978 37.5605 84.1721 37.6721 84.2224 37.795C84.2727 37.9179 84.298 38.0496 84.2968 38.1824C84.2957 38.3152 84.2681 38.4464 84.2157 38.5684C84.1632 38.6904 84.0871 38.8007 83.9916 38.893L59.9506 62.9345C59.8578 63.0275 59.7475 63.1013 59.6261 63.1516C59.5046 63.2019 59.3745 63.2277 59.2431 63.2275ZM49.6971 49.439C49.4993 49.4389 49.306 49.3803 49.1416 49.2704C48.9772 49.1605 48.849 49.0043 48.7734 48.8216C48.6977 48.6389 48.6779 48.4379 48.7165 48.2439C48.755 48.05 48.8502 47.8718 48.9901 47.732L68.7891 27.933C68.8813 27.8375 68.9916 27.7613 69.1136 27.7089C69.2356 27.6565 69.3669 27.6289 69.4997 27.6277C69.6324 27.6266 69.7641 27.6519 69.887 27.7022C70.0099 27.7524 70.1216 27.8267 70.2154 27.9206C70.3093 28.0145 70.3836 28.1261 70.4339 28.249C70.4842 28.3719 70.5095 28.5036 70.5083 28.6364C70.5071 28.7692 70.4796 28.9004 70.4272 29.0224C70.3747 29.1444 70.2986 29.2547 70.2031 29.347L50.4041 49.146C50.3114 49.2391 50.2012 49.3129 50.0798 49.3632C49.9585 49.4135 49.8284 49.4392 49.6971 49.439ZM65.2536 64.9955C65.0558 64.9954 64.8625 64.9368 64.6981 64.8269C64.5337 64.717 64.4055 64.5608 64.3299 64.3781C64.2542 64.1954 64.2344 63.9944 64.273 63.8004C64.3115 63.6065 64.4067 63.4283 64.5466 63.2885L84.3456 43.4895C84.4378 43.394 84.5481 43.3178 84.6702 43.2654C84.7922 43.213 84.9234 43.1854 85.0562 43.1842C85.1889 43.1831 85.3206 43.2084 85.4435 43.2587C85.5664 43.3089 85.6781 43.3832 85.7719 43.4771C85.8658 43.571 85.9401 43.6826 85.9904 43.8055C86.0407 43.9284 86.066 44.0601 86.0648 44.1929C86.0637 44.3257 86.0361 44.4569 85.9837 44.5789C85.9312 44.7009 85.8551 44.8112 85.7596 44.9035L65.9606 64.7025C65.7651 64.8975 65.5096 64.9955 65.2536 64.9955Z" fill="#222B3D"/>
<path d="M78.6885 57.9245C78.5572 57.9247 78.4271 57.8989 78.3058 57.8486C78.1844 57.7983 78.0742 57.7245 77.9815 57.6315L56.061 35.711C55.9655 35.6187 55.8893 35.5084 55.8369 35.3864C55.7845 35.2644 55.7569 35.1332 55.7558 35.0004C55.7546 34.8676 55.7799 34.7359 55.8302 34.613C55.8805 34.4901 55.9547 34.3785 56.0486 34.2846C56.1425 34.1907 56.2542 34.1164 56.3771 34.0662C56.5 34.0159 56.6316 33.9906 56.7644 33.9917C56.8972 33.9929 57.0284 34.0205 57.1504 34.0729C57.2724 34.1253 57.3828 34.2015 57.475 34.297L79.3955 56.2175C79.5353 56.3573 79.6305 56.5355 79.6691 56.7295C79.7077 56.9234 79.6879 57.1244 79.6122 57.3071C79.5365 57.4898 79.4084 57.646 79.244 57.7559C79.0796 57.8658 78.8863 57.9244 78.6885 57.9245ZM82.5775 54.035C82.4462 54.0352 82.3161 54.0094 82.1948 53.9591C82.0734 53.9088 81.9632 53.835 81.8705 53.742L59.95 31.822C59.8545 31.7297 59.7783 31.6194 59.7259 31.4974C59.6735 31.3754 59.6459 31.2442 59.6448 31.1114C59.6436 30.9786 59.6689 30.8469 59.7192 30.724C59.7695 30.6011 59.8437 30.4895 59.9376 30.3956C60.0315 30.3017 60.1432 30.2274 60.2661 30.1772C60.389 30.1269 60.5206 30.1016 60.6534 30.1027C60.7862 30.1039 60.9174 30.1315 61.0394 30.1839C61.1614 30.2363 61.2718 30.3125 61.364 30.408L83.2845 52.328C83.4243 52.4678 83.5195 52.646 83.5581 52.84C83.5967 53.0339 83.5769 53.2349 83.5012 53.4176C83.4255 53.6003 83.2974 53.7565 83.133 53.8664C82.9686 53.9763 82.7753 54.0349 82.5775 54.035ZM74.7995 61.8135C74.6682 61.8137 74.5381 61.7879 74.4168 61.7376C74.2954 61.6873 74.1852 61.6135 74.0925 61.5205L52.172 39.6C52.0765 39.5077 52.0003 39.3974 51.9479 39.2754C51.8955 39.1534 51.8679 39.0222 51.8668 38.8894C51.8656 38.7566 51.8909 38.6249 51.9412 38.502C51.9915 38.3791 52.0657 38.2675 52.1596 38.1736C52.2535 38.0797 52.3652 38.0054 52.4881 37.9552C52.611 37.9049 52.7426 37.8796 52.8754 37.8807C53.0082 37.8819 53.1394 37.9095 53.2614 37.9619C53.3834 38.0143 53.4938 38.0905 53.586 38.186L75.5065 60.1065C75.6463 60.2463 75.7415 60.4245 75.7801 60.6185C75.8187 60.8124 75.7989 61.0134 75.7232 61.1961C75.6475 61.3788 75.5194 61.535 75.355 61.6449C75.1906 61.7548 74.9973 61.8134 74.7995 61.8135ZM84.699 48.3785C84.5677 48.3787 84.4376 48.3529 84.3163 48.3026C84.1949 48.2523 84.0847 48.1785 83.992 48.0855L65.607 29.7005C65.5115 29.6082 65.4353 29.4979 65.3829 29.3759C65.3305 29.2539 65.3029 29.1227 65.3018 28.9899C65.3006 28.8571 65.3259 28.7254 65.3762 28.6025C65.4265 28.4796 65.5007 28.368 65.5946 28.2741C65.6885 28.1802 65.8002 28.1059 65.9231 28.0557C66.046 28.0054 66.1777 27.9801 66.3104 27.9812C66.4432 27.9824 66.5744 28.01 66.6964 28.0624C66.8184 28.1148 66.9288 28.191 67.021 28.2865L85.406 46.6715C85.5458 46.8113 85.641 46.9895 85.6796 47.1835C85.7182 47.3774 85.6984 47.5784 85.6227 47.7611C85.547 47.9438 85.4189 48.1 85.2545 48.2099C85.0901 48.3198 84.8968 48.3784 84.699 48.3785ZM69.1425 63.9345C69.0112 63.9347 68.8811 63.9089 68.7598 63.8586C68.6384 63.8083 68.5282 63.7345 68.4355 63.6415L50.0505 45.2565C49.955 45.1642 49.8788 45.0539 49.8264 44.9319C49.774 44.8099 49.7464 44.6787 49.7453 44.5459C49.7441 44.4131 49.7694 44.2814 49.8197 44.1585C49.87 44.0356 49.9442 43.924 50.0381 43.8301C50.132 43.7362 50.2437 43.6619 50.3666 43.6117C50.4895 43.5614 50.6211 43.5361 50.7539 43.5372C50.8867 43.5384 51.0179 43.566 51.1399 43.6184C51.2619 43.6708 51.3723 43.747 51.4645 43.8425L69.8495 62.2275C69.9893 62.3673 70.0845 62.5455 70.1231 62.7395C70.1617 62.9334 70.1419 63.1344 70.0662 63.3171C69.9905 63.4998 69.8624 63.656 69.698 63.7659C69.5336 63.8758 69.3403 63.9344 69.1425 63.9345Z" fill="#222B3D"/>
<defs>
<filter id="filter0_d_212_6" x="0" y="0" width="116" height="116" filterUnits="userSpaceOnUse" color-interpolation-filters="sRGB">
<feFlood flood-opacity="0" result="BackgroundImageFix"/>
<feColorMatrix in="SourceAlpha" type="matrix" values="0 0 0 0 0 0 0 0 0 0 0 0 0 0 0 0 0 0 127 0" result="hardAlpha"/>
<feOffset/>
<feGaussianBlur stdDeviation="2"/>
<feComposite in2="hardAlpha" operator="out"/>
<feColorMatrix type="matrix" values="0 0 0 0 0 0 0 0 0 0 0 0 0 0 0 0 0 0 0.05 0"/>
<feBlend mode="normal" in2="BackgroundImageFix" result="effect1_dropShadow_212_6"/>
<feBlend mode="normal" in="SourceGraphic" in2="effect1_dropShadow_212_6" result="shape"/>
</filter>
</defs>
</svg>
