<svg width="116" height="116" viewBox="0 0 116 116" fill="none" xmlns="http://www.w3.org/2000/svg">
<g filter="url(#filter0_d_212_4)">
<circle cx="58" cy="58" r="54" fill="#DBE2FF"/>
</g>
<path d="M70.089 40.7455L67.6035 36.603C67.3205 36.1315 66.639 35.7455 66.089 35.7455H50.589C50.039 35.7455 49.3575 36.131 49.0745 36.603L46.589 40.7455" fill="#758FFF"/>
<path d="M70.09 41.7455C69.75 41.7455 69.419 41.5725 69.2315 41.26L66.746 37.1175C66.6435 36.947 66.2875 36.7455 66.089 36.7455H50.589C50.39 36.7455 50.0345 36.947 49.932 37.1175L47.4465 41.26C47.3789 41.3726 47.2898 41.4708 47.1842 41.549C47.0787 41.6271 46.9588 41.6837 46.8314 41.7156C46.7039 41.7474 46.5715 41.7538 46.4416 41.7344C46.3117 41.7151 46.1869 41.6703 46.0743 41.6027C45.9616 41.5351 45.8635 41.446 45.7853 41.3405C45.7071 41.2349 45.6505 41.115 45.6187 40.9876C45.5869 40.8602 45.5804 40.7277 45.5998 40.5978C45.6191 40.4679 45.6639 40.3431 45.7315 40.2305L48.217 36.088C48.684 35.31 49.6815 34.7455 50.589 34.7455H66.089C66.9965 34.7455 67.994 35.3105 68.461 36.088L70.9465 40.2305C71.0376 40.3822 71.0869 40.5553 71.0892 40.7323C71.0916 40.9092 71.0469 41.0836 70.9598 41.2376C70.8727 41.3917 70.7463 41.5198 70.5935 41.6091C70.4407 41.6983 70.267 41.7454 70.09 41.7455Z" fill="#222B3D"/>
<path d="M85.4795 55.7455L80.603 50.501C80.2285 50.098 79.472 49.7675 78.922 49.766L71.0885 49.748C70.8237 49.748 70.5697 49.853 70.3823 50.04C70.1948 50.227 70.0892 50.4807 70.0885 50.7455V55.7455" fill="#758FFF"/>
<path d="M85.4795 56.7455C85.342 56.7456 85.206 56.7173 85.0799 56.6624C84.9539 56.6076 84.8405 56.5272 84.747 56.4265L79.871 51.182C79.684 50.9805 79.364 50.746 79.089 50.7455H71.089V55.7455C71.089 56.0107 70.9836 56.2651 70.7961 56.4526C70.6086 56.6401 70.3542 56.7455 70.089 56.7455C69.8238 56.7455 69.5694 56.6401 69.3819 56.4526C69.1943 56.2651 69.089 56.0107 69.089 55.7455V50.7455C69.089 50.212 69.2975 49.71 69.6765 49.332C69.8612 49.1463 70.0808 48.9991 70.3228 48.8989C70.5647 48.7987 70.8241 48.7474 71.086 48.748H71.0915L78.9245 48.766C79.756 48.7685 80.77 49.2115 81.3355 49.82L86.2115 55.064C86.3442 55.2065 86.4324 55.3847 86.4653 55.5767C86.4982 55.7687 86.4743 55.9661 86.3966 56.1446C86.3188 56.3232 86.1906 56.4752 86.0277 56.5819C85.8648 56.6887 85.6743 56.7455 85.4795 56.7455Z" fill="#222B3D"/>
<path d="M31.089 62.7455L34.9325 57.073C35.241 56.618 35.9435 56.2455 36.4935 56.2455H45.589C46.139 56.2455 46.589 56.6955 46.589 57.2455V62.7455" fill="#758FFF"/>
<path d="M31.0881 63.7455C30.9065 63.7453 30.7284 63.6958 30.5728 63.6021C30.4173 63.5084 30.2902 63.3741 30.2052 63.2136C30.1202 63.0532 30.0805 62.8726 30.0903 62.6913C30.1002 62.51 30.1592 62.3348 30.2611 62.1845L34.1046 56.512C34.6026 55.778 35.6071 55.2455 36.4936 55.2455H45.5891C46.6921 55.2455 47.5891 56.1425 47.5891 57.2455V62.7455C47.5891 63.0107 47.4837 63.2651 47.2962 63.4526C47.1086 63.6401 46.8543 63.7455 46.5891 63.7455C46.3238 63.7455 46.0695 63.6401 45.8819 63.4526C45.6944 63.2651 45.5891 63.0107 45.5891 62.7455V57.2455H36.4931C36.2736 57.2455 35.8831 57.4525 35.7596 57.634L31.9166 63.3065C31.825 63.442 31.7016 63.5528 31.5571 63.6294C31.4126 63.7059 31.2516 63.7458 31.0881 63.7455Z" fill="#222B3D"/>
<path d="M82.7565 80.8395C82.7565 83.652 72.2515 85.746 59.089 85.746C45.926 85.746 35.089 83.652 35.089 80.8395C35.089 78.0265 45.7595 75.7455 58.9225 75.7455C72.085 75.7455 82.7565 78.0265 82.7565 80.8395Z" fill="#B8CBCD"/>
<path d="M70.089 55.7455V40.7455H46.589V62.7455H31.089V79.7455H85.589V55.7455H70.089Z" fill="#758FFF"/>
<path d="M85.589 80.7455H31.089C30.8238 80.7455 30.5694 80.6401 30.3819 80.4526C30.1943 80.2651 30.089 80.0107 30.089 79.7455V62.7455C30.089 62.4803 30.1943 62.2259 30.3819 62.0384C30.5694 61.8508 30.8238 61.7455 31.089 61.7455H45.589V40.7455C45.589 40.4803 45.6943 40.2259 45.8819 40.0384C46.0694 39.8508 46.3238 39.7455 46.589 39.7455H70.089C70.3542 39.7455 70.6086 39.8508 70.7961 40.0384C70.9836 40.2259 71.089 40.4803 71.089 40.7455V54.7455H85.589C85.8542 54.7455 86.1086 54.8508 86.2961 55.0384C86.4836 55.2259 86.589 55.4803 86.589 55.7455V79.7455C86.589 80.0107 86.4836 80.2651 86.2961 80.4526C86.1086 80.6401 85.8542 80.7455 85.589 80.7455ZM32.089 78.7455H84.589V56.7455H70.089C69.8238 56.7455 69.5694 56.6401 69.3819 56.4526C69.1943 56.2651 69.089 56.0107 69.089 55.7455V41.7455H47.589V62.7455C47.589 63.0107 47.4836 63.2651 47.2961 63.4526C47.1086 63.6401 46.8542 63.7455 46.589 63.7455H32.089V78.7455Z" fill="#222B3D"/>
<path d="M58.589 56.7455C58.3238 56.7455 58.0694 56.6401 57.8819 56.4526C57.6944 56.265 57.589 56.0107 57.589 55.7455V48.9995L56.856 49.876C56.6859 50.0794 56.4419 50.2069 56.1778 50.2304C55.9136 50.254 55.6509 50.1716 55.4475 50.0015C55.2441 49.8313 55.1166 49.5874 55.0931 49.3232C55.0695 49.0591 55.1519 48.7964 55.322 48.593L57.822 45.604C57.8222 45.4435 57.8611 45.2854 57.9353 45.1431C58.0095 45.0007 58.1169 44.8784 58.2484 44.7864C58.3799 44.6943 58.5316 44.6353 58.6908 44.6143C58.8499 44.5933 59.0117 44.6109 59.1626 44.6657C59.3135 44.7205 59.4489 44.8108 59.5575 44.929C59.6661 45.0472 59.7447 45.1898 59.7865 45.3447C59.8283 45.4997 59.8322 45.6625 59.7978 45.8192C59.7635 45.976 59.6918 46.1222 59.589 46.2455V55.7455C59.589 56.0107 59.4837 56.265 59.2961 56.4526C59.1086 56.6401 58.8542 56.7455 58.589 56.7455Z" fill="#222B3D"/>
<path d="M56.6195 56.748C56.3543 56.748 56.0999 56.6428 55.9123 56.4553C55.7247 56.2678 55.6193 56.0134 55.6193 55.7482C55.6192 55.483 55.7245 55.2286 55.912 55.0411C56.0995 54.8535 56.3538 54.748 56.619 54.748L60.5885 54.7455H60.5895C60.8547 54.7454 61.1091 54.8507 61.2967 55.0382C61.4843 55.2257 61.5897 55.48 61.5898 55.7452C61.5898 56.0105 61.4845 56.2648 61.297 56.4524C61.1096 56.64 60.8552 56.7454 60.59 56.7455L56.6205 56.748H56.6195Z" fill="#222B3D"/>
<path d="M67.089 35.7455L70.089 40.7455V49.7455L79.9225 49.7685L85.4795 55.7455H85.589V79.7455H31.089V62.7455L35.4935 56.2455H46.589V40.7455L49.589 35.7455H67.089ZM67.089 33.7455H49.589C49.2436 33.7455 48.9041 33.8349 48.6036 34.0051C48.3031 34.1752 48.0517 34.4203 47.874 34.7165L44.874 39.7165C44.6877 40.0274 44.5892 40.383 44.589 40.7455V54.2455H35.493C35.1663 54.2455 34.8446 54.3255 34.5561 54.4786C34.2675 54.6317 34.0208 54.8531 33.8375 55.1235L29.433 61.6235C29.2085 61.9546 29.0885 62.3454 29.0885 62.7455V79.7455C29.0885 80.2759 29.2992 80.7846 29.6743 81.1597C30.0494 81.5348 30.5581 81.7455 31.0885 81.7455H85.5885C86.1189 81.7455 86.6276 81.5348 87.0027 81.1597C87.3778 80.7846 87.5885 80.2759 87.5885 79.7455V55.7455C87.5887 55.399 87.4988 55.0585 87.3276 54.7573C87.1564 54.4561 86.9098 54.2046 86.612 54.0275L81.3865 48.407C81.1998 48.2063 80.9739 48.0461 80.7228 47.9363C80.4716 47.8266 80.2006 47.7696 79.9265 47.769L72.0885 47.751V40.746C72.0885 40.3835 71.99 40.0275 71.8035 39.717L68.8035 34.717C68.6261 34.4207 68.3748 34.1754 68.0744 34.0052C67.7739 33.8349 67.4344 33.7454 67.089 33.7455Z" fill="#222B3D"/>
<path d="M79.589 71.7455H74.589C74.3238 71.7455 74.0694 71.6402 73.8819 71.4526C73.6943 71.2651 73.589 71.0107 73.589 70.7455C73.589 69.366 74.818 68.207 76.1195 66.9795C77.0585 66.094 78.227 64.992 78.227 64.2925C78.227 63.3155 77.3405 63.0955 77.03 63.0955C76.0735 63.0955 75.5885 63.5805 75.5885 64.537C75.5885 64.8022 75.4831 65.0566 75.2956 65.2441C75.1081 65.4317 74.8537 65.537 74.5885 65.537C74.3233 65.537 74.0689 65.4317 73.8814 65.2441C73.6938 65.0566 73.5885 64.8022 73.5885 64.537C73.5885 62.1595 75.317 61.0955 77.03 61.0955C78.6015 61.0955 80.227 62.2915 80.227 64.2925C80.227 65.855 78.8365 67.1665 77.4915 68.4345C77.069 68.833 76.5645 69.309 76.181 69.7455H79.5885C79.8537 69.7455 80.1081 69.8507 80.2957 70.0382C80.4832 70.2257 80.5887 70.4801 80.5887 70.7453C80.5888 71.0105 80.4835 71.2649 80.296 71.4524C80.1085 71.64 79.8542 71.7455 79.589 71.7455ZM39.174 76.2455C37.614 76.2455 36.0005 75.0585 36.0005 73.072C36.0005 72.8068 36.1058 72.5525 36.2934 72.3649C36.4809 72.1774 36.7353 72.072 37.0005 72.072C37.2657 72.072 37.5201 72.1774 37.7076 72.3649C37.8951 72.5525 38.0005 72.8068 38.0005 73.072C38.0005 74.03 38.8695 74.2455 39.174 74.2455C39.319 74.2455 40.589 74.206 40.589 72.8305C40.589 72.8235 40.567 72.14 39.7775 72.14C39.5123 72.14 39.2579 72.0347 39.0704 71.8471C38.8828 71.6596 38.7775 71.4052 38.7775 71.14C38.7775 70.8748 38.8828 70.6204 39.0704 70.4329C39.2579 70.2454 39.5123 70.14 39.7775 70.14C40.5585 70.14 40.589 70.14 40.589 69.208C40.589 68.149 39.7685 68.0345 39.4155 68.0345C38.4765 68.0345 38.0005 68.5105 38.0005 69.4495C38.0005 69.7147 37.8951 69.9691 37.7076 70.1566C37.5201 70.3442 37.2657 70.4495 37.0005 70.4495C36.7353 70.4495 36.4809 70.3442 36.2934 70.1566C36.1058 69.9691 36.0005 69.7147 36.0005 69.4495C36.0005 67.0905 37.7155 66.0345 39.4155 66.0345C40.9925 66.0345 42.589 67.1245 42.589 69.208C42.589 70.0905 42.415 70.7645 42.0565 71.2425C42.3986 71.7016 42.5852 72.258 42.589 72.8305C42.589 75.049 40.8295 76.2455 39.174 76.2455Z" fill="#222B3D"/>
<path d="M84.589 79.7455H32.089C31.6912 79.7455 31.3096 79.5874 31.0283 79.3061C30.747 79.0248 30.589 78.6433 30.589 78.2455C30.589 77.8477 30.747 77.4661 31.0283 77.1848C31.3096 76.9035 31.6912 76.7455 32.089 76.7455H84.589C84.9868 76.7455 85.3683 76.9035 85.6497 77.1848C85.931 77.4661 86.089 77.8477 86.089 78.2455C86.089 78.6433 85.931 79.0248 85.6497 79.3061C85.3683 79.5874 84.9868 79.7455 84.589 79.7455Z" fill="#222B3D"/>
<defs>
<filter id="filter0_d_212_4" x="0" y="0" width="116" height="116" filterUnits="userSpaceOnUse" color-interpolation-filters="sRGB">
<feFlood flood-opacity="0" result="BackgroundImageFix"/>
<feColorMatrix in="SourceAlpha" type="matrix" values="0 0 0 0 0 0 0 0 0 0 0 0 0 0 0 0 0 0 127 0" result="hardAlpha"/>
<feOffset/>
<feGaussianBlur stdDeviation="2"/>
<feComposite in2="hardAlpha" operator="out"/>
<feColorMatrix type="matrix" values="0 0 0 0 0 0 0 0 0 0 0 0 0 0 0 0 0 0 0.05 0"/>
<feBlend mode="normal" in2="BackgroundImageFix" result="effect1_dropShadow_212_4"/>
<feBlend mode="normal" in="SourceGraphic" in2="effect1_dropShadow_212_4" result="shape"/>
</filter>
</defs>
</svg>
