<svg width="116" height="116" viewBox="0 0 116 116" fill="none" xmlns="http://www.w3.org/2000/svg">
<g filter="url(#filter0_d_212_3)">
<circle cx="58" cy="58" r="54" fill="#DBE2FF"/>
</g>
<path d="M34.6085 83.0735C34.6085 84.4242 37.1195 85.7196 41.5892 86.6748C46.0588 87.6299 52.121 88.1665 58.442 88.1665C64.7631 88.1665 70.8252 87.6299 75.2949 86.6748C79.7645 85.7196 82.2755 84.4242 82.2755 83.0735C82.2755 81.7227 79.7645 80.4273 75.2949 79.4722C70.8252 78.5171 64.7631 77.9805 58.442 77.9805C52.121 77.9805 46.0588 78.5171 41.5892 79.4722C37.1195 80.4273 34.6085 81.7227 34.6085 83.0735Z" fill="#B8CBCD"/>
<path d="M47.232 33.4335C44.919 33.4335 43.508 35.436 43.508 38.5375C43.508 41.8575 44.2755 43 44.2755 48.167C44.2755 55.1865 40.045 57.076 40.045 64.2085C40.045 69.656 41.196 73.278 43.3865 79.4835C43.541 80.284 44.364 80.831 47.232 80.831L47.275 80.8305L47.3185 80.831C50.187 80.831 51.01 80.2835 51.164 79.4835C53.3545 73.278 54.5055 69.656 54.5055 64.2085C54.5055 57.0765 49.8315 55.0545 49.8315 48.035C49.8315 42.8685 50.7755 41.987 50.7755 38.667C50.7755 35.5655 49.632 33.4335 47.3185 33.4335H47.232Z" fill="#758FFF"/>
<path d="M47.3185 81.831C47.308 81.831 47.2685 81.8295 47.2585 81.8305C45.077 81.8305 42.837 81.58 42.4215 79.755C40.2645 73.643 39.045 69.892 39.045 64.2085C39.045 60.4045 40.1755 58.009 41.2685 55.692C42.3 53.5045 43.2755 51.439 43.2755 48.167C43.2755 45.3715 43.0435 43.7745 42.839 42.366C42.6685 41.194 42.508 40.087 42.508 38.5375C42.508 34.8295 44.3625 32.4335 47.232 32.4335H47.3185C50.1095 32.4335 51.7755 34.764 51.7755 38.667C51.7755 40.2375 51.576 41.301 51.364 42.427C51.1145 43.755 50.832 45.2605 50.832 48.035C50.832 51.289 51.9065 53.3805 53.0445 55.5955C54.2545 57.951 55.506 60.3865 55.506 64.2085C55.506 69.892 54.286 73.643 52.1295 79.755C51.713 81.582 49.468 81.831 47.3185 81.831ZM47.29 79.8305H47.2915L47.3185 80.831V79.831C49.497 79.831 50.1435 79.4935 50.1825 79.294C50.192 79.245 50.205 79.197 50.2215 79.1505C52.319 73.208 53.5055 69.584 53.5055 64.208C53.5055 60.8695 52.417 58.7515 51.265 56.509C50.0685 54.18 48.8315 51.772 48.8315 48.0345C48.8315 45.0735 49.133 43.471 49.3985 42.057C49.6005 40.9805 49.7755 40.0505 49.7755 38.6665C49.7755 37.3935 49.536 34.433 47.3185 34.433H47.232C44.704 34.433 44.508 37.5745 44.508 38.537C44.508 39.942 44.6515 40.932 44.818 42.078C45.0325 43.554 45.2755 45.2265 45.2755 48.1665C45.2755 51.8865 44.158 54.2545 43.077 56.545C42.032 58.76 41.045 60.8515 41.045 64.208C41.045 69.584 42.2315 73.208 44.329 79.1505C44.3455 79.197 44.359 79.245 44.368 79.294C44.4065 79.4935 45.053 79.831 47.232 79.831L47.29 79.8305Z" fill="#222B3D"/>
<path d="M44.7755 45.167H49.7755V50.167H44.7755V45.167Z" fill="white"/>
<path d="M49.7755 51.167H44.7755C44.5103 51.167 44.2559 51.0616 44.0684 50.8741C43.8809 50.6866 43.7755 50.4322 43.7755 50.167V45.167C43.7755 44.9018 43.8809 44.6474 44.0684 44.4599C44.2559 44.2723 44.5103 44.167 44.7755 44.167H49.7755C50.0407 44.167 50.2951 44.2723 50.4826 44.4599C50.6702 44.6474 50.7755 44.9018 50.7755 45.167V50.167C50.7755 50.4322 50.6702 50.6866 50.4826 50.8741C50.2951 51.0616 50.0407 51.167 49.7755 51.167ZM45.7755 49.167H48.7755V46.167H45.7755V49.167Z" fill="#222B3D"/>
<path d="M49.944 80.933C49.784 80.933 49.6264 80.8947 49.4844 80.8211C49.3423 80.7476 49.2199 80.6411 49.1276 80.5105C49.0352 80.3799 48.9755 80.2291 48.9535 80.0707C48.9314 79.9122 48.9477 79.7508 49.001 79.6C51.0985 73.6575 52.285 70.0335 52.285 64.6575C52.285 61.319 51.197 59.201 50.0455 56.958C48.849 54.6295 47.6125 52.2215 47.6125 48.484C47.6125 45.5005 48.0005 43.8465 48.3435 42.3875C48.6005 41.293 48.8225 40.348 48.8225 38.9865C48.8225 36.6085 47.454 34.8825 45.5675 34.8825C45.3023 34.8825 45.0479 34.7772 44.8604 34.5896C44.6729 34.4021 44.5675 34.1477 44.5675 33.8825C44.5675 33.6173 44.6729 33.3629 44.8604 33.1754C45.0479 32.9879 45.3023 32.8825 45.5675 32.8825C48.563 32.8825 50.8225 35.507 50.8225 38.9865C50.8225 40.5795 50.564 41.6795 50.291 42.8445C49.9575 44.264 49.613 45.732 49.613 48.484C49.613 51.738 50.687 53.8295 51.825 56.0445C53.035 58.3995 54.286 60.835 54.286 64.6575C54.286 70.36 53.058 74.1165 50.8875 80.2655C50.8185 80.4606 50.6907 80.6296 50.5218 80.7491C50.3528 80.8686 50.151 80.9329 49.944 80.933Z" fill="#222B3D"/>
<path d="M69.034 33.4335C66.721 33.4335 65.31 35.436 65.31 38.5375C65.31 41.8575 66.276 43 66.276 48.167C66.276 55.1865 61.8475 57.076 61.8475 64.2085C61.8475 69.656 62.9985 73.278 65.189 79.4835C65.3435 80.284 66.1665 80.831 69.0345 80.831L69.0775 80.8305L69.121 80.831C71.9895 80.831 72.8125 80.2835 72.9665 79.4835C75.157 73.278 76.308 69.656 76.308 64.2085C76.308 57.0765 71.7765 55.187 71.7765 48.167C71.7765 43.0005 72.8455 41.8575 72.8455 38.5375C72.8455 35.436 71.435 33.4335 69.1215 33.4335H69.034Z" fill="#758FFF"/>
<path d="M69.1201 81.831C69.1096 81.831 69.0706 81.8295 69.0601 81.8305C66.8786 81.8305 64.6386 81.58 64.2231 79.755C62.0666 73.643 60.8466 69.892 60.8466 64.2085C60.8466 60.395 62.0316 57.996 63.1776 55.676C64.2561 53.492 65.2751 51.4295 65.2751 48.167C65.2751 45.3895 64.9851 43.8025 64.7291 42.402C64.5131 41.221 64.3091 40.1055 64.3091 38.538C64.3091 34.83 66.1636 32.434 69.0331 32.434H69.1196C71.9891 32.434 73.8436 34.83 73.8436 38.538C73.8436 40.115 73.6171 41.235 73.3771 42.421C73.0951 43.817 72.7746 45.4 72.7746 48.1675C72.7746 51.425 73.8166 53.486 74.9196 55.668C76.0931 57.9895 77.3061 60.39 77.3061 64.209C77.3061 69.8925 76.0866 73.6435 73.9296 79.7555C73.5146 81.582 71.2696 81.831 69.1201 81.831ZM69.0921 79.8305H69.0936L69.1206 80.831V79.831C71.2991 79.831 71.9456 79.4935 71.9846 79.294C71.9937 79.2452 72.0068 79.1972 72.0236 79.1505C74.1211 73.208 75.3076 69.584 75.3076 64.208C75.3076 60.866 74.2526 58.779 73.1356 56.5695C71.9756 54.2745 70.7756 51.901 70.7756 48.1665C70.7756 45.1985 71.1171 43.5115 71.4176 42.0235C71.6466 40.8915 71.8446 39.914 71.8446 38.537C71.8446 37.5745 71.6481 34.433 69.1206 34.433H69.0341C66.5061 34.433 66.3101 37.5745 66.3101 38.537C66.3101 39.9235 66.4891 40.905 66.6971 42.042C66.9681 43.526 67.2756 45.208 67.2756 48.1665C67.2756 51.8955 66.1041 54.2675 64.9711 56.561C63.8786 58.7725 62.8471 60.861 62.8471 64.2075C62.8471 69.5835 64.0336 73.2075 66.1311 79.15C66.1476 79.1965 66.1611 79.2445 66.1701 79.2935C66.2086 79.493 66.8551 79.8305 69.0341 79.8305H69.0921Z" fill="#222B3D"/>
<path d="M66.7755 45.167H71.7755V50.167H66.7755V45.167Z" fill="white"/>
<path d="M71.7755 51.167H66.7755C66.5103 51.167 66.2559 51.0616 66.0684 50.8741C65.8809 50.6866 65.7755 50.4322 65.7755 50.167V45.167C65.7755 44.9018 65.8809 44.6474 66.0684 44.4599C66.2559 44.2723 66.5103 44.167 66.7755 44.167H71.7755C72.0407 44.167 72.2951 44.2723 72.4826 44.4599C72.6702 44.6474 72.7755 44.9018 72.7755 45.167V50.167C72.7755 50.4322 72.6702 50.6866 72.4826 50.8741C72.2951 51.0616 72.0407 51.167 71.7755 51.167ZM67.7755 49.167H70.7755V46.167H67.7755V49.167Z" fill="#222B3D"/>
<path d="M71.7455 80.933C71.5856 80.933 71.4279 80.8947 71.2859 80.8211C71.1438 80.7476 71.0215 80.6411 70.9291 80.5105C70.8367 80.3799 70.777 80.2291 70.755 80.0707C70.7329 79.9122 70.7493 79.7508 70.8025 79.6C72.9 73.6575 74.0865 70.0335 74.0865 64.6575C74.0865 61.319 72.9985 59.201 71.847 56.958C70.6505 54.6295 69.414 52.2215 69.414 48.484C69.414 45.5005 69.802 43.8465 70.145 42.3875C70.402 41.293 70.624 40.348 70.624 38.9865C70.624 36.6085 69.2555 34.8825 67.369 34.8825C67.1038 34.8825 66.8494 34.7772 66.6619 34.5896C66.4744 34.4021 66.369 34.1477 66.369 33.8825C66.369 33.6173 66.4744 33.3629 66.6619 33.1754C66.8494 32.9879 67.1038 32.8825 67.369 32.8825C70.3645 32.8825 72.624 35.507 72.624 38.9865C72.624 40.5795 72.3655 41.6795 72.092 42.8445C71.7585 44.264 71.414 45.732 71.414 48.484C71.414 51.738 72.488 53.8295 73.626 56.0445C74.836 58.3995 76.087 60.835 76.087 64.6575C76.087 70.36 74.859 74.1165 72.6885 80.2655C72.6197 80.4607 72.4921 80.6297 72.3232 80.7492C72.1543 80.8688 71.9524 80.933 71.7455 80.933Z" fill="#222B3D"/>
<path d="M57.962 29.667C55.388 29.667 53.8175 31.8955 53.8175 35.3475C53.8175 39.042 54.7755 39.917 54.7755 45.667C54.7755 53.4795 49.9635 55.9795 49.9635 63.917C49.9635 69.9795 51.244 74.011 53.6815 80.917C53.8535 81.8075 54.7695 82.417 57.962 82.417L58.01 82.416L58.0585 82.417C61.251 82.417 62.167 81.8075 62.339 80.917C64.7765 74.0105 66.057 69.9795 66.057 63.917C66.057 55.9795 60.776 53.4795 60.776 45.667C60.776 39.917 62.203 39.042 62.203 35.3475C62.203 31.8955 60.6325 29.667 58.0585 29.667H57.962Z" fill="#758FFF"/>
<path d="M58.058 83.417C58.026 83.4175 57.994 83.4175 57.962 83.417C55.6125 83.417 53.16 83.1495 52.717 81.188C50.3195 74.3935 48.9635 70.226 48.9635 63.917C48.9635 59.712 50.2415 56.9575 51.4765 54.2935C52.6585 51.7445 53.7755 49.337 53.7755 45.667C53.7755 42.562 53.487 40.911 53.2325 39.4545C53.019 38.2325 52.8175 37.078 52.8175 35.3475C52.8175 31.2895 54.837 28.667 57.962 28.667H58.058C61.183 28.667 63.2025 31.2895 63.2025 35.3475C63.2025 37.119 62.8975 38.2925 62.574 39.534C62.1815 41.043 61.775 42.6035 61.775 45.667C61.775 49.318 62.997 51.719 64.291 54.2605C65.6505 56.931 67.056 59.6925 67.056 63.917C67.056 70.2255 65.7 74.3935 63.3025 81.188C62.8605 83.15 60.408 83.417 58.058 83.417ZM58.033 81.4165H58.041L58.0585 82.417V81.417C60.3925 81.417 61.2925 81.061 61.357 80.7275C61.3665 80.6785 61.3795 80.631 61.396 80.584C63.7345 73.9585 65.057 69.918 65.057 63.9165C65.057 60.172 63.8195 57.741 62.5095 55.1675C61.165 52.527 59.7755 49.797 59.7755 45.6665C59.7755 42.347 60.234 40.5845 60.639 39.03C60.9415 37.867 61.203 36.863 61.203 35.347C61.203 34.249 60.9765 30.6665 58.0585 30.6665H57.9625C55.0445 30.6665 54.818 34.249 54.818 35.347C54.818 36.904 54.9965 37.926 55.203 39.1095C55.4715 40.646 55.776 42.388 55.776 45.6665C55.776 49.778 54.513 52.501 53.2915 55.1345C52.094 57.715 50.964 60.1525 50.964 63.9165C50.964 69.918 52.2865 73.9585 54.625 80.584C54.6415 80.6305 54.655 80.6785 54.664 80.7275C54.7285 81.0605 55.6285 81.417 57.9625 81.417L58.033 81.4165Z" fill="#222B3D"/>
<path d="M55.2755 43.167H60.7755V48.667H55.2755V43.167Z" fill="white"/>
<path d="M60.7755 49.667H55.2755C55.0103 49.667 54.7559 49.5616 54.5684 49.3741C54.3809 49.1866 54.2755 48.9322 54.2755 48.667V43.167C54.2755 42.9018 54.3809 42.6474 54.5684 42.4599C54.7559 42.2723 55.0103 42.167 55.2755 42.167H60.7755C61.0407 42.167 61.2951 42.2723 61.4826 42.4599C61.6702 42.6474 61.7755 42.9018 61.7755 43.167V48.667C61.7755 48.9322 61.6702 49.1866 61.4826 49.3741C61.2951 49.5616 61.0407 49.667 60.7755 49.667ZM56.2755 47.667H59.7755V44.167H56.2755V47.667Z" fill="#222B3D"/>
<path d="M60.9805 82.417C60.8206 82.417 60.663 82.3787 60.5209 82.3051C60.3788 82.2316 60.2565 82.1251 60.1641 81.9945C60.0717 81.8639 60.012 81.7131 59.99 81.5547C59.968 81.3962 59.9843 81.2348 60.0375 81.084C62.376 74.4585 63.6985 70.418 63.6985 64.4165C63.6985 60.674 62.481 58.3045 61.193 55.7965C59.868 53.217 58.497 50.549 58.497 46.4165C58.497 43.109 58.9275 41.275 59.308 39.6575C59.5955 38.4325 59.844 37.375 59.844 35.847C59.844 33.135 58.2725 31.1665 56.108 31.1665C55.8428 31.1665 55.5885 31.0611 55.4009 30.8736C55.2134 30.6861 55.108 30.4317 55.108 30.1665C55.108 29.9013 55.2134 29.6469 55.4009 29.4594C55.5885 29.2719 55.8428 29.1665 56.108 29.1665C59.378 29.1665 61.844 32.0385 61.844 35.847C61.844 37.607 61.558 38.825 61.2545 40.115C60.8995 41.627 60.4965 43.341 60.4965 46.4165C60.4965 50.0655 61.6985 52.4055 62.971 54.8825C64.3115 57.492 65.6975 60.19 65.6975 64.4165C65.6975 70.7445 64.333 74.9175 61.922 81.7495C61.8537 81.9447 61.7264 82.1137 61.5577 82.2333C61.389 82.3529 61.1873 82.4171 60.9805 82.417Z" fill="#222B3D"/>
<path d="M45.7755 73.6505C45.7755 75.2572 46.092 76.8481 46.7068 78.3325C47.3217 79.8168 48.2228 81.1655 49.3589 82.3016C50.495 83.4377 51.8437 84.3389 53.3281 84.9537C54.8124 85.5686 56.4034 85.885 58.01 85.885C59.6167 85.885 61.2076 85.5686 62.692 84.9537C64.1763 84.3389 65.525 83.4377 66.6611 82.3016C67.7972 81.1655 68.6984 79.8168 69.3132 78.3325C69.9281 76.8481 70.2445 75.2572 70.2445 73.6505C70.2445 70.4057 68.9555 67.2938 66.6611 64.9994C64.3667 62.705 61.2548 61.416 58.01 61.416C54.7652 61.416 51.6533 62.705 49.3589 64.9994C47.0645 67.2938 45.7755 70.4057 45.7755 73.6505Z" fill="#F0F3FF"/>
<path d="M58.01 86.885C50.7125 86.885 44.7755 80.948 44.7755 73.6505C44.7755 66.353 50.7125 60.416 58.01 60.416C65.308 60.416 71.245 66.353 71.245 73.6505C71.245 80.948 65.3075 86.885 58.01 86.885ZM58.01 62.416C51.815 62.416 46.7755 67.456 46.7755 73.6505C46.7755 79.8455 51.815 84.885 58.01 84.885C64.205 84.885 69.245 79.845 69.245 73.6505C69.2445 67.456 64.2045 62.416 58.01 62.416Z" fill="#222B3D"/>
<path d="M46.2255 77.7595C45.9602 77.7595 45.7059 77.6541 45.5184 77.4666C45.3308 77.2791 45.2255 77.0247 45.2255 76.7595C45.2255 67.9955 52.3555 60.865 61.119 60.865C61.3842 60.865 61.6385 60.9703 61.8261 61.1579C62.0136 61.3454 62.119 61.5998 62.119 61.865C62.119 62.1302 62.0136 62.3846 61.8261 62.5721C61.6385 62.7596 61.3842 62.865 61.119 62.865C53.458 62.865 47.2255 69.098 47.2255 76.7595C47.2255 77.0247 47.1201 77.2791 46.9326 77.4666C46.745 77.6541 46.4907 77.7595 46.2255 77.7595Z" fill="white"/>
<path d="M54.8755 86.409C54.6103 86.409 54.3559 86.3037 54.1684 86.1161C53.9808 85.9286 53.8755 85.6742 53.8755 85.409C53.8755 85.1438 53.9808 84.8895 54.1684 84.7019C54.3559 84.5144 54.6103 84.409 54.8755 84.409C62.5365 84.409 68.769 78.176 68.769 70.5145C68.769 70.2493 68.8743 69.995 69.0619 69.8074C69.2494 69.6199 69.5038 69.5145 69.769 69.5145C70.0342 69.5145 70.2886 69.6199 70.4761 69.8074C70.6636 69.995 70.769 70.2493 70.769 70.5145C70.769 79.279 63.639 86.409 54.8755 86.409Z" fill="#222B3D"/>
<path d="M55.403 70.932C55.403 71.3727 55.578 71.7953 55.8896 72.1069C56.2012 72.4185 56.6238 72.5935 57.0645 72.5935C57.5051 72.5935 57.9277 72.4185 58.2393 72.1069C58.5509 71.7953 58.726 71.3727 58.726 70.932C58.726 70.4913 58.5509 70.0687 58.2393 69.7571C57.9277 69.4456 57.5051 69.2705 57.0645 69.2705C56.6238 69.2705 56.2012 69.4456 55.8896 69.7571C55.578 70.0687 55.403 70.4913 55.403 70.932Z" fill="#222B3D"/>
<path d="M60.7285 69.27C60.7285 69.7107 60.9036 70.1333 61.2152 70.4449C61.5267 70.7565 61.9494 70.9315 62.39 70.9315C62.8307 70.9315 63.2533 70.7565 63.5649 70.4449C63.8765 70.1333 64.0515 69.7107 64.0515 69.27C64.0515 68.8294 63.8765 68.4068 63.5649 68.0952C63.2533 67.7836 62.8307 67.6085 62.39 67.6085C61.9494 67.6085 61.5267 67.7836 61.2152 68.0952C60.9036 68.4068 60.7285 68.8294 60.7285 69.27Z" fill="#222B3D"/>
<path d="M60.1245 74.5965C60.1245 75.0372 60.2996 75.4598 60.6112 75.7714C60.9227 76.0829 61.3454 76.258 61.786 76.258C62.2267 76.258 62.6493 76.0829 62.9609 75.7714C63.2725 75.4598 63.4475 75.0372 63.4475 74.5965C63.4475 74.1558 63.2725 73.7332 62.9609 73.4216C62.6493 73.11 62.2267 72.935 61.786 72.935C61.3454 72.935 60.9227 73.11 60.6112 73.4216C60.2996 73.7332 60.1245 74.1558 60.1245 74.5965Z" fill="#222B3D"/>
<path d="M58.01 86.885C50.7125 86.885 44.7755 80.948 44.7755 73.6505C44.7755 66.353 50.7125 60.416 58.01 60.416C65.308 60.416 71.245 66.353 71.245 73.6505C71.245 80.948 65.3075 86.885 58.01 86.885ZM58.01 62.416C51.815 62.416 46.7755 67.456 46.7755 73.6505C46.7755 79.8455 51.815 84.885 58.01 84.885C64.205 84.885 69.245 79.845 69.245 73.6505C69.2445 67.456 64.2045 62.416 58.01 62.416Z" fill="#222B3D"/>
<path d="M57.9781 87.885C53.6671 87.885 49.552 85.8225 46.8186 82.329C45.168 82.3155 42.4385 82.1355 41.909 79.894C39.7401 73.746 38.5135 69.965 38.5135 64.208C38.5135 60.2895 39.677 57.8415 40.8025 55.4745C41.817 53.3405 42.7755 51.3245 42.7755 48.167C42.7755 45.412 42.537 43.8365 42.3265 42.4465C42.1465 41.254 41.976 40.1275 41.976 38.5375C41.976 34.5875 44.0756 31.9335 47.2001 31.9335H47.2866C49.6981 31.9335 52.2755 33.7025 52.2755 38.667C52.2755 40.2885 52.064 41.3765 51.8405 42.5285C51.575 43.8965 51.3 45.3115 51.3 48.035C51.3 49.6685 51.47 50.9725 51.767 52.1125C52.6235 50.25 53.276 48.273 53.276 45.667C53.276 42.6065 52.992 40.996 52.7165 39.438C52.49 38.155 52.276 36.9425 52.276 35.167C52.276 30.9145 54.4955 28.167 57.931 28.167H58.0271C61.4555 28.167 63.6716 30.9855 63.6716 35.3475C63.6716 37.1795 63.366 38.3805 63.042 39.652C62.6656 41.132 62.2761 42.6635 62.2761 45.667C62.2761 48.475 63.203 50.5 64.293 52.514C64.6105 51.3365 64.7761 49.9875 64.7761 48.167C64.7761 45.4395 64.4935 43.9455 64.2215 42.5005C63.9935 41.294 63.7785 40.155 63.7785 38.5375C63.7785 34.5875 65.878 31.9335 69.0025 31.9335H69.0891C72.2136 31.9335 74.313 34.5875 74.313 38.5375C74.313 40.1885 74.048 41.3165 73.7676 42.51C73.4406 43.9015 73.1021 45.3405 73.1021 48.0345C73.1021 51.1675 74.15 53.207 75.259 55.3665C76.4385 57.6625 77.7756 60.265 77.7756 64.208C77.7756 69.965 76.549 73.746 74.3801 79.894C73.854 82.119 71.1606 82.3125 69.5246 82.3295C67.1006 85.7305 62.6751 87.885 57.9781 87.885ZM48.3221 79.2805L48.7925 79.955C50.917 82.996 54.4366 84.885 57.9781 84.885C61.159 84.885 65.205 83.473 67.2585 80.3295L67.5876 79.9375L67.7375 79.536L67.9125 79.241L68.8306 79.3005C68.9191 79.306 69.0021 79.3165 69.0801 79.3305C70.6891 79.33 71.299 79.142 71.494 79.0555L71.5196 78.984C73.599 73.093 74.7756 69.5025 74.7756 64.208C74.7756 60.9905 73.7141 58.9245 72.5905 56.7375C71.3671 54.356 70.1016 51.8935 70.1016 48.0345C70.1016 44.993 70.497 43.309 70.8465 41.8235C71.1071 40.7155 71.3125 39.8405 71.3125 38.5375C71.3125 37.692 71.1525 34.9335 69.0886 34.9335H69.002C66.938 34.9335 66.778 37.692 66.778 38.5375C66.778 39.874 66.959 40.8335 67.1685 41.944C67.453 43.451 67.7756 45.159 67.7756 48.167C67.7756 52.1375 67.0576 54.3125 65.8186 56.727L64.452 59.3895L63.1366 56.701C62.8336 56.0805 62.4951 55.469 62.1371 54.821C60.7956 52.3955 59.2756 49.646 59.2756 45.667C59.2756 42.2875 59.732 40.4945 60.1345 38.9125C60.4345 37.7345 60.6711 36.8035 60.6711 35.3475C60.6711 34.367 60.4801 31.167 58.0266 31.167H57.9305C55.6206 31.167 55.2755 33.673 55.2755 35.167C55.2755 36.6795 55.4585 37.716 55.6705 38.916C55.9541 40.5225 56.2755 42.3435 56.2755 45.6665C56.2755 49.955 54.7645 52.909 53.431 55.515C53.2695 55.831 53.1086 56.146 52.9506 56.4615L51.6271 59.1125L50.2745 56.4765C48.872 53.7435 48.3 51.2975 48.3 48.035C48.3 45.023 48.6165 43.3935 48.8955 41.9565C49.108 40.8635 49.2755 40 49.2755 38.667C49.2755 37.5445 49.0816 34.9335 47.2866 34.9335H47.2001C45.1361 34.9335 44.976 37.692 44.976 38.5375C44.976 39.902 45.123 40.873 45.293 41.9975C45.519 43.492 45.7755 45.186 45.7755 48.1665C45.7755 52.001 44.6245 54.4215 43.512 56.762C42.484 58.924 41.5135 60.966 41.5135 64.2075C41.5135 69.5015 42.6901 73.0925 44.7696 78.9835L44.795 79.055C44.99 79.1415 45.599 79.3305 47.201 79.3305L47.2936 79.33C47.3756 79.32 47.446 79.3175 47.5005 79.315L48.3221 79.2805Z" fill="#222B3D"/>
<defs>
<filter id="filter0_d_212_3" x="0" y="0" width="116" height="116" filterUnits="userSpaceOnUse" color-interpolation-filters="sRGB">
<feFlood flood-opacity="0" result="BackgroundImageFix"/>
<feColorMatrix in="SourceAlpha" type="matrix" values="0 0 0 0 0 0 0 0 0 0 0 0 0 0 0 0 0 0 127 0" result="hardAlpha"/>
<feOffset/>
<feGaussianBlur stdDeviation="2"/>
<feComposite in2="hardAlpha" operator="out"/>
<feColorMatrix type="matrix" values="0 0 0 0 0 0 0 0 0 0 0 0 0 0 0 0 0 0 0.05 0"/>
<feBlend mode="normal" in2="BackgroundImageFix" result="effect1_dropShadow_212_3"/>
<feBlend mode="normal" in="SourceGraphic" in2="effect1_dropShadow_212_3" result="shape"/>
</filter>
</defs>
</svg>
