<svg width="48" height="48" viewBox="0 0 48 48" fill="none" xmlns="http://www.w3.org/2000/svg">
<path fill-rule="evenodd" clip-rule="evenodd" d="M12.72 12.7619L1.64008 23.8373L3.79996 23.8386L5.95984 23.84L14.9 14.8979L23.8401 5.95571V3.81779C23.8401 2.64203 23.8311 1.68143 23.82 1.68323C23.809 1.68491 18.814 6.67031 12.72 12.7619ZM24.24 3.82919V5.96027L33.1815 14.9015L42.123 23.8427L44.2415 23.8213L46.36 23.7999L35.3001 12.749L24.24 1.69811V3.82919ZM16.9122 16.8813L9.7846 24.0009L16.8832 31.1206C20.7875 35.0363 23.9964 38.24 24.0141 38.24C24.0317 38.24 26.0248 36.2591 28.4432 33.8378C30.8614 31.4166 34.0552 28.2222 35.5404 26.739C37.0257 25.2558 38.2317 24.0147 38.2204 23.9811C38.2065 23.9394 24.055 9.74711 24.041 9.76091C24.041 9.76091 20.8325 12.9656 16.9122 16.8813ZM26.7228 16.7743C28.1952 18.2562 30.4198 20.4919 31.6662 21.7425L33.9324 24.0164L33.7704 24.1889C33.6813 24.2838 32.9135 25.043 32.0642 25.8761C31.2149 26.709 29.0676 28.8451 27.2925 30.6228L24.0648 33.8551L22.6595 32.4675C21.8867 31.7043 19.6503 29.4859 17.6897 27.5377L14.1251 23.9954L19.0823 19.0377C21.8088 16.311 24.0426 14.08 24.0426 14.08C24.0426 14.08 25.2503 15.2924 26.7228 16.7743ZM23.4966 22.3626C21.6714 23.0325 22.0854 25.76 24.0124 25.76C26.005 25.76 26.458 22.931 24.5559 22.3662C24.0502 22.216 23.8976 22.2155 23.4966 22.3626ZM1.68004 24.2011C1.68004 24.2375 8.32108 30.8563 20.0001 42.4599L23.8 46.2354L23.8226 44.0977L23.8451 41.96L19.5425 37.6833C17.1762 35.3311 13.1469 31.3261 10.5886 28.7833L5.93716 24.1599H3.8086C2.63788 24.1599 1.68004 24.1785 1.68004 24.2011ZM42.1059 24.3409C41.7611 24.5953 37.1392 29.1513 30.18 36.0966L24.24 42.0248V44.1503V46.2757L26.256 44.2778C32.8074 37.7855 46.32 24.2807 46.32 24.2254C46.32 24.0454 42.3592 24.1539 42.1059 24.3409Z" fill="#2D55FF"/>
</svg>
